<?xml version="1.0" encoding="UTF-8"?>
<svg version="1.1" xmlns="http://www.w3.org/2000/svg" width="144" height="144">
<path d="M0 0 C12.67509386 9.86461049 22.25717381 22.85371895 25 39 C26.57013133 56.83858237 24.26253697 73.41364634 12.7890625 87.765625 C9.14600155 91.90491684 5.50986956 95.79119491 1 99 C0.01 99 -0.98 99 -2 99 C-3.41943359 97.44970703 -3.41943359 97.44970703 -4.8984375 95.2578125 C-5.45345947 94.44820068 -6.00848145 93.63858887 -6.58032227 92.80444336 C-7.17256592 91.92022705 -7.76480957 91.03601074 -8.375 90.125 C-9.640625 88.27384868 -10.90757954 86.42360575 -12.17578125 84.57421875 C-12.81596191 83.63626465 -13.45614258 82.69831055 -14.11572266 81.73193359 C-16.86240729 77.74963235 -19.70855868 73.84326137 -22.5625 69.9375 C-27.04288038 63.77774405 -31.40115906 57.5462132 -35.6875 51.25 C-36.22576416 50.46318848 -36.76402832 49.67637695 -37.31860352 48.86572266 C-39.8562549 45.15550666 -42.37646951 41.435896 -44.86328125 37.69140625 C-45.74153951 36.39799726 -46.62040818 35.10500247 -47.5 33.8125 C-47.88502686 33.21791992 -48.27005371 32.62333984 -48.66674805 32.01074219 C-49.86772455 30.18663546 -49.86772455 30.18663546 -52 28 C-54.69147316 27.51265072 -54.69147316 27.51265072 -57 28 C-58.14818825 30.2963765 -58.12669904 31.58997731 -58.12939453 34.14257812 C-58.13412277 35.42400696 -58.13412277 35.42400696 -58.13894653 36.73132324 C-58.1369223 37.65529907 -58.13489807 38.5792749 -58.1328125 39.53125 C-58.13376923 40.47810669 -58.13472595 41.42496338 -58.13571167 42.4005127 C-58.13639286 44.40454169 -58.1345428 46.40857289 -58.13037109 48.41259766 C-58.125022 51.4873549 -58.13031814 54.56196607 -58.13671875 57.63671875 C-58.13605796 59.58072949 -58.13477677 61.52474014 -58.1328125 63.46875 C-58.13483673 64.39272583 -58.13686096 65.31670166 -58.13894653 66.26867676 C-58.13579437 67.12296265 -58.13264221 67.97724854 -58.12939453 68.85742188 C-58.12859894 69.61083862 -58.12780334 70.36425537 -58.12698364 71.14050293 C-58.11353076 73.093969 -58.11353076 73.093969 -57 75 C-55.35 75 -53.7 75 -52 75 C-51.67 64.77 -51.34 54.54 -51 44 C-50.34 44 -49.68 44 -49 44 C-47.78588867 45.45849609 -47.78588867 45.45849609 -46.41796875 47.5234375 C-45.90484131 48.2880127 -45.39171387 49.05258789 -44.86303711 49.84033203 C-44.31010986 50.67677246 -43.75718262 51.51321289 -43.1875 52.375 C-42.00718624 54.13153901 -40.82484312 55.88671585 -39.640625 57.640625 C-39.03541016 58.53716797 -38.43019531 59.43371094 -37.80664062 60.35742188 C-35.08888281 64.33269357 -32.27214113 68.23257997 -29.4375 72.125 C-24.522211 78.88268289 -19.67070229 85.68120192 -14.86889648 92.52001953 C-14.17195679 93.51171143 -14.17195679 93.51171143 -13.4609375 94.5234375 C-13.03393555 95.13541992 -12.60693359 95.74740234 -12.16699219 96.37792969 C-11.19962333 97.72253192 -10.15898356 99.0140651 -9.1015625 100.2890625 C-8.73804687 100.85367188 -8.37453125 101.41828125 -8 102 C-8.495 103.485 -8.495 103.485 -9 105 C-11.36328125 106.1328125 -11.36328125 106.1328125 -14.3125 107.125 C-15.27800781 107.45757812 -16.24351563 107.79015625 -17.23828125 108.1328125 C-33.0777349 113.10644575 -50.08290485 110.59451342 -64.6875 103.3125 C-79.48452172 94.74013516 -89.17334289 81.48561159 -94.14453125 65.265625 C-97.94564988 49.0114286 -95.0381238 31.9218054 -86.7578125 17.62890625 C-77.61899295 3.9612939 -64.33481957 -5.85438536 -48.22045898 -9.62280273 C-31.22695523 -12.50954966 -14.36027187 -9.60196485 0 0 Z M-18 24 C-21.39716659 29.09574989 -20.49491012 35.07638781 -20.5625 41.0625 C-20.61212891 42.34833984 -20.66175781 43.63417969 -20.71289062 44.95898438 C-20.80817707 53.84784818 -19.27859754 59.5137353 -13 66 C-12.67 66 -12.34 66 -12 66 C-11.97535362 60.17928378 -11.9571657 54.35859766 -11.94506836 48.5378418 C-11.94002733 46.55606559 -11.93319462 44.57429311 -11.92456055 42.5925293 C-11.91248485 39.75047891 -11.90676955 36.90847753 -11.90234375 34.06640625 C-11.89718246 33.17474258 -11.89202118 32.28307892 -11.88670349 31.36439514 C-11.88650823 29.24259399 -11.9378997 27.1208922 -12 25 C-13.05429686 23.73527935 -13.05429686 23.73527935 -15.4375 23.75 C-16.283125 23.8325 -17.12875 23.915 -18 24 Z " fill="#202020" transform="translate(107,22)"/>
</svg>
